<?xml version="1.0" encoding="UTF-8" standalone="no"?>
<svg
   xmlns:dc="http://purl.org/dc/elements/1.1/"
   xmlns:cc="http://creativecommons.org/ns#"
   xmlns:rdf="http://www.w3.org/1999/02/22-rdf-syntax-ns#"
   xmlns:svg="http://www.w3.org/2000/svg"
   xmlns="http://www.w3.org/2000/svg"
   xmlns:sodipodi="http://sodipodi.sourceforge.net/DTD/sodipodi-0.dtd"
   xmlns:inkscape="http://www.inkscape.org/namespaces/inkscape"
   version="1.1"
   width="370"
   height="337"
   viewBox="451.5 96 370 337"
   xml:space="preserve"
   id="svg31"
   sodipodi:docname="built.svg"><metadata
   id="metadata35"><rdf:RDF><cc:Work
       rdf:about=""><dc:format>image/svg+xml</dc:format><dc:type
         rdf:resource="http://purl.org/dc/dcmitype/StillImage" /></cc:Work></rdf:RDF></metadata><sodipodi:namedview
   pagecolor="#ffffff"
   bordercolor="#666666"
   borderopacity="1"
   objecttolerance="10"
   gridtolerance="10"
   guidetolerance="10"
   inkscape:pageopacity="0"
   inkscape:pageshadow="2"
   inkscape:window-width="640"
   inkscape:window-height="480"
   id="namedview33"
   fit-margin-top="20"
   fit-margin-left="20"
   fit-margin-right="20"
   fit-margin-bottom="20" />
<desc
   id="desc2">Created with Fabric.js 5.3.0</desc>
<defs
   id="defs4">
</defs><rect
   width="100%"
   height="100%"
   fill="#ffffff"
   id="rect6"
   x="20"
   y="20" />
<g
   transform="matrix(0.66,0,0,0.66,636.5,264.5)"
   id="main_icon">
<g
   id="g28">
		<g
   transform="matrix(1.15,0,0,1.15,0.34,11.3)"
   id="g10">
<path
   style="opacity:1;fill:#2f80ed;fill-rule:nonzero;stroke:none;stroke-width:0;stroke-linecap:butt;stroke-linejoin:miter;stroke-miterlimit:4;stroke-dasharray:none;stroke-dashoffset:0"
   transform="translate(-216.83,-204.69)"
   d="m 102.53,229.98 c 0,-17.83 -0.06,-35.65 0.06,-53.48 0.02,-3.15 -0.71,-4.94 -3.95,-6.23 -10.19,-4.06 -20.16,-8.68 -30.29,-12.89 -5.08,-2.12 -9.14,-4.93 -9.53,-10.95 -0.4,-6.17 3.48,-9.36 8.46,-11.63 32.86,-14.95 65.72,-29.93 98.62,-44.8 14.86,-6.72 29.91,-13.03 44.68,-19.92 4.69,-2.19 8.57,-2.03 13.15,0.07 24.94,11.46 50,22.66 74.99,34.01 21.51,9.77 42.98,19.63 64.46,29.46 1.81,0.83 3.61,1.72 5.3,2.76 8.58,5.3 8.56,14.6 -0.33,19.3 -5.86,3.1 -12.21,5.28 -18.27,8.02 -5.44,2.46 -12.81,3.81 -15.6,8.08 -2.79,4.27 -1.1,11.56 -1.12,17.52 -0.1,30.32 -0.19,60.64 -0.1,90.96 0.02,6.46 -2.52,10.6 -8.41,13.25 -34.29,15.44 -68.5,31.07 -102.83,46.41 -2.41,1.07 -6.05,1.35 -8.38,0.32 -34.24,-15.16 -68.31,-30.7 -102.54,-45.88 -6.44,-2.85 -8.82,-6.98 -8.68,-13.91 0.36,-16.82 0.12,-33.65 0.12,-50.47 0.06,0 0.12,0 0.18,0 z m 103.83,82.17 c 0.13,-2.73 0.27,-4.2 0.27,-5.68 0.02,-27.83 -0.23,-55.67 0.25,-83.49 0.11,-6.27 -2.39,-8.74 -7.45,-10.89 -15.78,-6.7 -31.41,-13.74 -47.12,-20.59 -8.8,-3.84 -17.63,-7.58 -26.6,-11.43 -0.21,0.91 -0.4,1.38 -0.4,1.84 -0.04,30.16 -0.11,60.33 0.07,90.49 0,1.58 1.85,3.89 3.41,4.61 25.53,11.71 51.15,23.22 77.57,35.14 z m 65.92,-116.23 c -2.73,1.04 -4.89,1.75 -6.96,2.68 -10.48,4.69 -20.85,9.62 -31.43,14.05 -3.32,1.39 -4.4,3.03 -4.38,6.56 0.13,28.98 0.05,57.95 0.05,86.93 0,1.4 0.21,2.8 0.35,4.51 1.09,-0.43 1.7,-0.64 2.29,-0.9 24.98,-11.35 49.93,-22.79 74.99,-33.96 2.93,-1.31 2.86,-3.09 2.86,-5.46 0.01,-28.31 0.06,-56.62 0.08,-84.93 0,-1.74 -0.14,-3.47 -0.24,-5.77 -4.17,1.88 -7.71,3.7 -11.41,5.09 -2.87,1.07 -3.61,2.96 -3.55,5.74 0.12,5.16 0.17,10.33 0,15.48 -0.28,8.48 -5.09,13.74 -12.17,13.54 -6.18,-0.17 -10.23,-5.34 -10.46,-13.44 -0.09,-3.13 -0.01,-6.26 -0.01,-10.13 z M 148.93,163.93 c 0.83,0.74 1.13,1.16 1.54,1.34 21.17,9.29 42.32,18.61 63.56,27.71 1.68,0.72 4.25,0.36 6.04,-0.37 10.92,-4.48 21.74,-9.19 32.58,-13.87 10.56,-4.57 21.1,-9.19 32.58,-14.2 -22.5,-9.9 -43.89,-19.45 -65.45,-28.61 -2.51,-1.06 -6.3,-0.87 -8.85,0.23 -18.32,7.92 -36.47,16.22 -54.67,24.4 -2.34,1.05 -4.67,2.14 -7.33,3.37 z M 99.52,145.55 c 2.41,1.03 3.87,1.4 5.05,2.19 8.29,5.57 15.82,4.18 24.66,-0.09 24.23,-11.71 49.05,-22.2 73.59,-33.29 1.38,-0.63 3.16,-2.2 3.28,-3.47 0.41,-4.22 0.16,-8.5 0.16,-13.53 -35.66,16.1 -70.6,31.88 -106.74,48.2 z M 229.09,98.23 c 0,4.21 0.3,6.74 -0.06,9.17 -0.72,4.81 1.53,6.96 5.75,8.84 26.55,11.87 52.96,24.04 79.45,36.05 1.05,0.48 2.6,0.66 3.63,0.25 5.05,-2.02 10,-4.3 16.03,-6.93 -35.02,-15.83 -69.28,-31.32 -104.8,-47.37 z"
   stroke-linecap="round"
   id="path8" />
</g>
		<g
   transform="matrix(1.15,0,0,1.15,0.2,-142)"
   id="g14">
<path
   style="opacity:1;fill:#2f80ed;fill-rule:nonzero;stroke:none;stroke-width:0;stroke-linecap:butt;stroke-linejoin:miter;stroke-miterlimit:4;stroke-dasharray:none;stroke-dashoffset:0"
   transform="translate(-216.72,-71.4)"
   d="m 217.35,0.02 c 44.89,0.13 86.03,14.84 122.2,43.16 26.91,21.07 46.56,47.85 59.59,79.46 0.88,2.14 1.62,4.38 2.08,6.65 1.17,5.75 -1.13,10.14 -6.12,12.14 -5.88,2.36 -10.61,1.12 -13.67,-4.45 -4.97,-9.03 -8.99,-18.61 -14.27,-27.45 C 339.2,62.77 298.01,33.71 244.63,24.88 186.55,15.28 135.85,32.75 93.6,74.12 77.8,89.59 65.84,107.6 56.89,127.72 c -1.01,2.28 -2.19,4.49 -3.38,6.68 -3.78,6.93 -9.89,9.93 -15.48,7.64 -5.54,-2.27 -7.81,-9.02 -4.74,-16.39 3.58,-8.59 7.23,-17.25 11.89,-25.28 23.56,-40.58 56.86,-70.03 100.69,-87.32 21.61,-8.52 47,-13.38 71.48,-13.03 z"
   stroke-linecap="round"
   id="path12" />
</g>
		<g
   transform="matrix(1.15,0,0,1.15,0.12,141.26)"
   id="g18">
<path
   style="opacity:1;fill:#2f80ed;fill-rule:nonzero;stroke:none;stroke-width:0;stroke-linecap:butt;stroke-linejoin:miter;stroke-miterlimit:4;stroke-dasharray:none;stroke-dashoffset:0"
   transform="translate(-216.63,-317.7)"
   d="M 216.98,389.54 C 179.27,388.95 145.01,378.35 113.32,358.51 76.45,335.43 51.05,302.87 33.78,263.47 c -4.57,-10.42 0.62,-18.2 11.07,-17 5.42,0.62 7.47,4.84 9.8,8.97 6.69,11.87 12.74,24.21 20.52,35.34 24.54,35.12 57.47,58.85 99.11,69.86 16.28,4.3 32.95,7.14 49.77,5.58 48.86,-4.52 90.5,-23.99 123.37,-61.1 12.41,-14.01 21.59,-29.93 29.38,-46.79 1.32,-2.86 2.7,-5.78 4.56,-8.28 3.28,-4.4 10.19,-5.43 14.92,-2.6 4.12,2.46 6.04,8.19 4.12,13.21 -12.52,32.76 -32.48,60.2 -59.56,82.39 -24.73,20.27 -52.81,34.02 -84.04,40.74 -13.08,2.82 -26.54,3.89 -39.83,5.75 z"
   stroke-linecap="round"
   id="path16" />
</g>
		<g
   transform="matrix(1.15,0,0,1.15,215.12,0.36)"
   id="g22">
<path
   style="opacity:1;fill:#2f80ed;fill-rule:nonzero;stroke:none;stroke-width:0;stroke-linecap:butt;stroke-linejoin:miter;stroke-miterlimit:4;stroke-dasharray:none;stroke-dashoffset:0"
   transform="translate(-403.61,-195.19)"
   d="m 374.18,195.45 c 0.39,-17.99 12.75,-30.87 29.35,-30.58 16.62,0.29 29.87,14.4 29.51,31.41 -0.36,17.31 -13.85,29.71 -31.78,29.22 -15.21,-0.42 -27.43,-13.98 -27.09,-30.05 z"
   stroke-linecap="round"
   id="path20" />
</g>
		<g
   transform="matrix(1.15,0,0,1.15,-215.59,0.57)"
   id="g26">
<path
   style="opacity:1;fill:#2f80ed;fill-rule:nonzero;stroke:none;stroke-width:0;stroke-linecap:butt;stroke-linejoin:miter;stroke-miterlimit:4;stroke-dasharray:none;stroke-dashoffset:0"
   transform="translate(-29.06,-195.39)"
   d="m 0.12,196.63 c -0.42,-17.79 11.54,-31.01 28.36,-31.36 16.45,-0.34 29.18,12.47 29.63,29.84 0.44,16.86 -11.8,29.76 -28.3,30.38 C 12.1,226.15 -1.45,209.84 0.12,196.64 Z"
   stroke-linecap="round"
   id="path24" />
</g>
</g>
</g></svg>
